{
  "accessors": [
    {
      "bufferView": 2,
      "componentType": 5126,
      "count": 12102,
      "max": [
        0.85415410995483398,
        7.7382001876831055,
        23.865196228027344
      ],
      "min": [
        -25.347965240478516,
        -7.7382001876831055,
        4.2339963912963867
      ],
      "type": "VEC3"
    },
    {
      "bufferView": 2,
      "byteOffset": 145224,
      "componentType": 5126,
      "count": 12102,
      "max": [
        1,
        1,
        1
      ],
      "min": [
        -1,
        -1,
        -1
      ],
      "type": "VEC3"
    },
    {
      "bufferView": 3,
      "componentType": 5126,
      "count": 12102,
      "max": [
        1,
        1,
        0.98067456483840942,
        1
      ],
      "min": [
        -1,
        -1,
        -0.82477259635925293,
        -1
      ],
      "type": "VEC4"
    },
    {
      "bufferView": 1,
      "componentType": 5126,
      "count": 12102,
      "max": [
        0.9966776967048645,
        0.99948811531066895
      ],
      "min": [
        0.000511921476572752,
        0.000511921476572752
      ],
      "type": "VEC2"
    },
    {
      "bufferView": 0,
      "componentType": 5125,
      "count": 21036,
      "max": [
        12101
      ],
      "min": [
        0
      ],
      "type": "SCALAR"
    },
    {
      "bufferView": 2,
      "byteOffset": 290448,
      "componentType": 5126,
      "count": 28173,
      "max": [
        -14.97159481048584,
        7.6610813140869141,
        9.9990272521972656
      ],
      "min": [
        -25.322162628173828,
        -7.6610813140869141,
        0
      ],
      "type": "VEC3"
    },
    {
      "bufferView": 2,
      "byteOffset": 628524,
      "componentType": 5126,
      "count": 28173,
      "max": [
        1,
        1,
        1
      ],
      "min": [
        -1,
        -1,
        -1
      ],
      "type": "VEC3"
    },
    {
      "bufferView": 3,
      "byteOffset": 193632,
      "componentType": 5126,
      "count": 28173,
      "max": [
        1,
        1,
        1,
        1
      ],
      "min": [
        -1,
        -1,
        -1,
        -1
      ],
      "type": "VEC4"
    },
    {
      "bufferView": 1,
      "byteOffset": 96816,
      "componentType": 5126,
      "count": 28173,
      "max": [
        0.99960708618164062,
        0.94132554531097412
      ],
      "min": [
        0.00039292892324738204,
        0.00039292892324738204
      ],
      "type": "VEC2"
    },
    {
      "bufferView": 0,
      "byteOffset": 84144,
      "componentType": 5125,
      "count": 54372,
      "max": [
        28172
      ],
      "min": [
        0
      ],
      "type": "SCALAR"
    },
    {
      "bufferView": 2,
      "byteOffset": 966600,
      "componentType": 5126,
      "count": 16411,
      "max": [
        0.875,
        8.0243968963623047,
        16
      ],
      "min": [
        -18.919940948486328,
        -8.0243968963623047,
        0
      ],
      "type": "VEC3"
    },
    {
      "bufferView": 2,
      "byteOffset": 1163532,
      "componentType": 5126,
      "count": 16411,
      "max": [
        1,
        1,
        1
      ],
      "min": [
        -1,
        -1,
        -1
      ],
      "type": "VEC3"
    },
    {
      "bufferView": 3,
      "byteOffset": 644400,
      "componentType": 5126,
      "count": 16411,
      "max": [
        1,
        1,
        0.99977272748947144,
        1
      ],
      "min": [
        -1,
        -1,
        -1,
        -1
      ],
      "type": "VEC4"
    },
    {
      "bufferView": 1,
      "byteOffset": 322200,
      "componentType": 5126,
      "count": 16411,
      "max": [
        0.99937278032302856,
        0.9948926568031311
      ],
      "min": [
        0,
        0
      ],
      "type": "VEC2"
    },
    {
      "bufferView": 0,
      "byteOffset": 301632,
      "componentType": 5125,
      "count": 45072,
      "max": [
        16410
      ],
      "min": [
        0
      ],
      "type": "SCALAR"
    },
    {
      "bufferView": 2,
      "byteOffset": 1360464,
      "componentType": 5126,
      "count": 11104,
      "max": [
        0.098577499389648438,
        7.2860813140869141,
        12
      ],
      "min": [
        -0.30991363525390625,
        -7.2860813140869141,
        0
      ],
      "type": "VEC3"
    },
    {
      "bufferView": 2,
      "byteOffset": 1493712,
      "componentType": 5126,
      "count": 11104,
      "max": [
        1,
        1,
        1
      ],
      "min": [
        -1.2549413440865465e-05,
        -1,
        -1
      ],
      "type": "VEC3"
    },
    {
      "bufferView": 3,
      "byteOffset": 906976,
      "componentType": 5126,
      "count": 11104,
      "max": [
        1,
        1,
        1,
        1
      ],
      "min": [
        -1,
        -0.99890875816345215,
        -1,
        1
      ],
      "type": "VEC4"
    },
    {
      "bufferView": 1,
      "byteOffset": 453488,
      "componentType": 5126,
      "count": 11104,
      "max": [
        0.99838757514953613,
        0.99956667423248291
      ],
      "min": [
        0.00043337541865184903,
        0.00043337541865184903
      ],
      "type": "VEC2"
    },
    {
      "bufferView": 0,
      "byteOffset": 481920,
      "componentType": 5125,
      "count": 21546,
      "max": [
        11103
      ],
      "min": [
        0
      ],
      "type": "SCALAR"
    },
    {
      "bufferView": 2,
      "byteOffset": 1626960,
      "componentType": 5126,
      "count": 13675,
      "max": [
        -16.995019912719727,
        3.1610813140869141,
        14.115091323852539
      ],
      "min": [
        -25.322160720825195,
        -3.1610813140869141,
        0
      ],
      "type": "VEC3"
    },
    {
      "bufferView": 2,
      "byteOffset": 1791060,
      "componentType": 5126,
      "count": 13675,
      "max": [
        1,
        1,
        1
      ],
      "min": [
        -1,
        -1,
        -1
      ],
      "type": "VEC3"
    },
    {
      "bufferView": 3,
      "byteOffset": 1084640,
      "componentType": 5126,
      "count": 13675,
      "max": [
        1,
        1,
        1,
        1
      ],
      "min": [
        -1,
        -1,
        -1,
        1
      ],
      "type": "VEC4"
    },
    {
      "bufferView": 1,
      "byteOffset": 542320,
      "componentType": 5126,
      "count": 13675,
      "max": [
        0.9991840124130249,
        0.98097115755081177
      ],
      "min": [
        0.00081591226626187563,
        0.00081591226626187563
      ],
      "type": "VEC2"
    },
    {
      "bufferView": 0,
      "byteOffset": 568104,
      "componentType": 5125,
      "count": 30978,
      "max": [
        13674
      ],
      "min": [
        0
      ],
      "type": "SCALAR"
    }
  ],
  "asset": {
    "extras": {
      "author": "Tidvis (https://sketchfab.com/Tidvis)",
      "license": "CC-BY-4.0 (http://creativecommons.org/licenses/by/4.0/)",
      "source": "https://sketchfab.com/models/cb86c7b100834cfcbeef0d151ef619a6",
      "title": "Mariakirken WIP"
    },
    "generator": "Sketchfab-3.41.0",
    "version": "2.0"
  },
  "bufferViews": [
    {
      "buffer": 0,
      "byteLength": 692016,
      "byteOffset": 0,
      "name": "floatBufferViews",
      "target": 34963
    },
    {
      "buffer": 0,
      "byteLength": 651720,
      "byteOffset": 692016,
      "byteStride": 8,
      "name": "floatBufferViews",
      "target": 34962
    },
    {
      "buffer": 0,
      "byteLength": 1955160,
      "byteOffset": 1343736,
      "byteStride": 12,
      "name": "floatBufferViews",
      "target": 34962
    },
    {
      "buffer": 0,
      "byteLength": 1303440,
      "byteOffset": 3298896,
      "byteStride": 16,
      "name": "floatBufferViews",
      "target": 34962
    }
  ],
  "buffers": [
    {
      "byteLength": 4602336,
      "uri": "scene.bin"
    }
  ],
  "images": [
    {
      "uri": "https://img.gs/nqkkbfhlsg/1024x1024,quality=low/https://midtimiddelalderen.no/models/mariakirken/textures/WhiteStone_metallicRoughness.png"
    },
    {
      "uri": "https://img.gs/nqkkbfhlsg/1024x1024,quality=low/https://midtimiddelalderen.no/models/mariakirken/textures/WhiteStone_normal.png"
    },
    {
      "uri": "https://img.gs/nqkkbfhlsg/1024x1024,quality=low/https://midtimiddelalderen.no/models/mariakirken/textures/WhiteStone_baseColor.jpeg"
    },
    {
      "uri": "https://img.gs/nqkkbfhlsg/1024x1024,quality=low/https://midtimiddelalderen.no/models/mariakirken/textures/Roof_metallicRoughness.png"
    },
    {
      "uri": "https://img.gs/nqkkbfhlsg/1024x1024,quality=low/https://midtimiddelalderen.no/models/mariakirken/textures/Roof_normal.png"
    },
    {
      "uri": "https://img.gs/nqkkbfhlsg/1024x1024,quality=low/https://midtimiddelalderen.no/models/mariakirken/textures/Roof_baseColor.jpeg"
    },
    {
      "uri": "https://img.gs/nqkkbfhlsg/1024x1024,quality=low/https://midtimiddelalderen.no/models/mariakirken/textures/Brick_metallicRoughness.png"
    },
    {
      "uri": "https://img.gs/nqkkbfhlsg/1024x1024,quality=low/https://midtimiddelalderen.no/models/mariakirken/textures/Brick_normal.png"
    },
    {
      "uri": "https://img.gs/nqkkbfhlsg/1024x1024,quality=low/https://midtimiddelalderen.no/models/mariakirken/textures/Brick_baseColor.jpeg"
    },
    {
      "uri": "https://img.gs/nqkkbfhlsg/1024x1024,quality=low/https://midtimiddelalderen.no/models/mariakirken/textures/WhiteStone2_metallicRoughness.png"
    },
    {
      "uri": "https://img.gs/nqkkbfhlsg/1024x1024,quality=low/https://midtimiddelalderen.no/models/mariakirken/textures/WhiteStone2_normal.png"
    },
    {
      "uri": "https://img.gs/nqkkbfhlsg/1024x1024,quality=low/https://midtimiddelalderen.no/models/mariakirken/textures/WhiteStone2_baseColor.jpeg"
    },
    {
      "uri": "https://img.gs/nqkkbfhlsg/1024x1024,quality=low/https://midtimiddelalderen.no/models/mariakirken/textures/Brick2_metallicRoughness.png"
    },
    {
      "uri": "https://img.gs/nqkkbfhlsg/1024x1024,quality=low/https://midtimiddelalderen.no/models/mariakirken/textures/Brick2_normal.png"
    },
    {
      "uri": "https://img.gs/nqkkbfhlsg/1024x1024,quality=low/https://midtimiddelalderen.no/models/mariakirken/textures/Brick2_baseColor.jpeg"
    }
  ],
  "materials": [
    {
      "doubleSided": false,
      "name": "Roof",
      "normalTexture": {
        "index": 4,
        "scale": 1,
        "texCoord": 0
      },
      "pbrMetallicRoughness": {
        "baseColorFactor": [
          1,
          1,
          1,
          1
        ],
        "baseColorTexture": {
          "index": 5,
          "texCoord": 0
        },
        "metallicFactor": 1,
        "metallicRoughnessTexture": {
          "index": 3,
          "texCoord": 0
        },
        "roughnessFactor": 1
      }
    },
    {
      "doubleSided": false,
      "name": "Brick",
      "normalTexture": {
        "index": 7,
        "scale": 1,
        "texCoord": 0
      },
      "pbrMetallicRoughness": {
        "baseColorFactor": [
          1,
          1,
          1,
          1
        ],
        "baseColorTexture": {
          "index": 8,
          "texCoord": 0
        },
        "metallicFactor": 1,
        "metallicRoughnessTexture": {
          "index": 6,
          "texCoord": 0
        },
        "roughnessFactor": 1
      }
    },
    {
      "doubleSided": false,
      "name": "WhiteStone",
      "normalTexture": {
        "index": 1,
        "scale": 1,
        "texCoord": 0
      },
      "pbrMetallicRoughness": {
        "baseColorFactor": [
          1,
          1,
          1,
          1
        ],
        "baseColorTexture": {
          "index": 2,
          "texCoord": 0
        },
        "metallicFactor": 1,
        "metallicRoughnessTexture": {
          "index": 0,
          "texCoord": 0
        },
        "roughnessFactor": 1
      }
    },
    {
      "doubleSided": false,
      "name": "WhiteStone2",
      "normalTexture": {
        "index": 10,
        "scale": 1,
        "texCoord": 0
      },
      "pbrMetallicRoughness": {
        "baseColorFactor": [
          1,
          1,
          1,
          1
        ],
        "baseColorTexture": {
          "index": 11,
          "texCoord": 0
        },
        "metallicFactor": 1,
        "metallicRoughnessTexture": {
          "index": 9,
          "texCoord": 0
        },
        "roughnessFactor": 1
      }
    },
    {
      "doubleSided": false,
      "name": "Brick2",
      "normalTexture": {
        "index": 13,
        "scale": 1,
        "texCoord": 0
      },
      "pbrMetallicRoughness": {
        "baseColorFactor": [
          1,
          1,
          1,
          1
        ],
        "baseColorTexture": {
          "index": 14,
          "texCoord": 0
        },
        "metallicFactor": 1,
        "metallicRoughnessTexture": {
          "index": 12,
          "texCoord": 0
        },
        "roughnessFactor": 1
      }
    }
  ],
  "meshes": [
    {
      "name": "Mariakirke_Texture.002_Roof_0",
      "primitives": [
        {
          "attributes": {
            "NORMAL": 1,
            "POSITION": 0,
            "TANGENT": 2,
            "TEXCOORD_0": 3
          },
          "indices": 4,
          "material": 0,
          "mode": 4
        }
      ]
    },
    {
      "name": "Mariakirke_Texture.002_Brick_0",
      "primitives": [
        {
          "attributes": {
            "NORMAL": 6,
            "POSITION": 5,
            "TANGENT": 7,
            "TEXCOORD_0": 8
          },
          "indices": 9,
          "material": 1,
          "mode": 4
        }
      ]
    },
    {
      "name": "Mariakirke_Texture.002_WhiteStone_0",
      "primitives": [
        {
          "attributes": {
            "NORMAL": 11,
            "POSITION": 10,
            "TANGENT": 12,
            "TEXCOORD_0": 13
          },
          "indices": 14,
          "material": 2,
          "mode": 4
        }
      ]
    },
    {
      "name": "Mariakirke_Texture.002_WhiteStone2_0",
      "primitives": [
        {
          "attributes": {
            "NORMAL": 16,
            "POSITION": 15,
            "TANGENT": 17,
            "TEXCOORD_0": 18
          },
          "indices": 19,
          "material": 3,
          "mode": 4
        }
      ]
    },
    {
      "name": "Mariakirke_Texture.002_Brick2_0",
      "primitives": [
        {
          "attributes": {
            "NORMAL": 21,
            "POSITION": 20,
            "TANGENT": 22,
            "TEXCOORD_0": 23
          },
          "indices": 24,
          "material": 4,
          "mode": 4
        }
      ]
    }
  ],
  "nodes": [
    {
      "children": [
        1
      ],
      "name": "RootNode (gltf orientation matrix)",
      "rotation": [
        -0.70710678118654746,
        -0,
        -0,
        0.70710678118654757
      ]
    },
    {
      "children": [
        2
      ],
      "name": "RootNode (model correction matrix)"
    },
    {
      "children": [
        3
      ],
      "matrix": [
        1,
        0,
        0,
        0,
        0,
        0,
        1,
        0,
        0,
        -1,
        0,
        0,
        0,
        0,
        0,
        1
      ],
      "name": "9ddc5bc37ef4458582b8b2888265a18b.fbx"
    },
    {
      "children": [
        4
      ],
      "name": "RootNode"
    },
    {
      "children": [
        5,
        6,
        7,
        8,
        9
      ],
      "matrix": [
        100,
        0,
        0,
        0,
        0,
        -1.6292067939183141e-05,
        -99.999999999998678,
        0,
        0,
        99.999999999998678,
        -1.6292067939183141e-05,
        0,
        3000,
        0,
        0,
        1
      ],
      "name": "Mariakirke_Texture.002"
    },
    {
      "mesh": 0,
      "name": "Mariakirke_Texture.002_Roof_0"
    },
    {
      "mesh": 1,
      "name": "Mariakirke_Texture.002_Brick_0"
    },
    {
      "mesh": 2,
      "name": "Mariakirke_Texture.002_WhiteStone_0"
    },
    {
      "mesh": 3,
      "name": "Mariakirke_Texture.002_WhiteStone2_0"
    },
    {
      "mesh": 4,
      "name": "Mariakirke_Texture.002_Brick2_0"
    }
  ],
  "samplers": [
    {
      "magFilter": 9729,
      "minFilter": 9987,
      "wrapS": 10497,
      "wrapT": 10497
    }
  ],
  "scene": 0,
  "scenes": [
    {
      "name": "OSG_Scene",
      "nodes": [
        0
      ]
    }
  ],
  "textures": [
    {
      "sampler": 0,
      "source": 0
    },
    {
      "sampler": 0,
      "source": 1
    },
    {
      "sampler": 0,
      "source": 2
    },
    {
      "sampler": 0,
      "source": 3
    },
    {
      "sampler": 0,
      "source": 4
    },
    {
      "sampler": 0,
      "source": 5
    },
    {
      "sampler": 0,
      "source": 6
    },
    {
      "sampler": 0,
      "source": 7
    },
    {
      "sampler": 0,
      "source": 8
    },
    {
      "sampler": 0,
      "source": 9
    },
    {
      "sampler": 0,
      "source": 10
    },
    {
      "sampler": 0,
      "source": 11
    },
    {
      "sampler": 0,
      "source": 12
    },
    {
      "sampler": 0,
      "source": 13
    },
    {
      "sampler": 0,
      "source": 14
    }
  ]
}

