{
  "accessors": [
    {
      "bufferView": 2,
      "componentType": 5126,
      "count": 13162,
      "max": [
        5.2431035041809082,
        2.2729921340942383,
        11.512635231018066
      ],
      "min": [
        -6.1054463386535645,
        -2.2729926109313965,
        -0.15011024475097656
      ],
      "type": "VEC3"
    },
    {
      "bufferView": 2,
      "byteOffset": 157944,
      "componentType": 5126,
      "count": 13162,
      "max": [
        1,
        1,
        1
      ],
      "min": [
        -1,
        -1,
        -1
      ],
      "type": "VEC3"
    },
    {
      "bufferView": 3,
      "componentType": 5126,
      "count": 13162,
      "max": [
        1,
        1,
        1,
        1
      ],
      "min": [
        -1,
        -1,
        -1,
        -1
      ],
      "type": "VEC4"
    },
    {
      "bufferView": 1,
      "componentType": 5126,
      "count": 13162,
      "max": [
        0.99586725234985352,
        0.9906579852104187
      ],
      "min": [
        0.00070376432267948985,
        0.00070376432267948985
      ],
      "type": "VEC2"
    },
    {
      "bufferView": 0,
      "componentType": 5125,
      "count": 57636,
      "max": [
        13161
      ],
      "min": [
        0
      ],
      "type": "SCALAR"
    },
    {
      "bufferView": 2,
      "byteOffset": 315888,
      "componentType": 5126,
      "count": 9379,
      "max": [
        6.9181280136108398,
        2.3092007637023926,
        2.6008882522583008
      ],
      "min": [
        -6.0695610046386719,
        -2.3092007637023926,
        -0.41445615887641907
      ],
      "type": "VEC3"
    },
    {
      "bufferView": 2,
      "byteOffset": 428436,
      "componentType": 5126,
      "count": 9379,
      "max": [
        1,
        1,
        1
      ],
      "min": [
        -1,
        -1,
        -1
      ],
      "type": "VEC3"
    },
    {
      "bufferView": 3,
      "byteOffset": 210592,
      "componentType": 5126,
      "count": 9379,
      "max": [
        1,
        1,
        0.9999733567237854,
        1
      ],
      "min": [
        -0.99955904483795166,
        -1,
        -0.99983721971511841,
        -1
      ],
      "type": "VEC4"
    },
    {
      "bufferView": 1,
      "byteOffset": 105296,
      "componentType": 5126,
      "count": 9379,
      "max": [
        0.99844706058502197,
        0.99930769205093384
      ],
      "min": [
        0.0018422156572341919,
        0.0019916726741939783
      ],
      "type": "VEC2"
    },
    {
      "bufferView": 0,
      "byteOffset": 230544,
      "componentType": 5125,
      "count": 17502,
      "max": [
        9378
      ],
      "min": [
        0
      ],
      "type": "SCALAR"
    }
  ],
  "asset": {
    "extras": {
      "author": "Tidvis (https://sketchfab.com/Tidvis)",
      "license": "CC-BY-4.0 (http://creativecommons.org/licenses/by/4.0/)",
      "source": "https://sketchfab.com/models/a4eb2e9ab5754fc3a4e4cf9fd63edf40",
      "title": "Middelalderbåt WIP"
    },
    "generator": "Sketchfab-3.42.2",
    "version": "2.0"
  },
  "bufferViews": [
    {
      "buffer": 0,
      "byteLength": 300552,
      "byteOffset": 0,
      "name": "floatBufferViews",
      "target": 34963
    },
    {
      "buffer": 0,
      "byteLength": 180328,
      "byteOffset": 300552,
      "byteStride": 8,
      "name": "floatBufferViews",
      "target": 34962
    },
    {
      "buffer": 0,
      "byteLength": 540984,
      "byteOffset": 480880,
      "byteStride": 12,
      "name": "floatBufferViews",
      "target": 34962
    },
    {
      "buffer": 0,
      "byteLength": 360656,
      "byteOffset": 1021864,
      "byteStride": 16,
      "name": "floatBufferViews",
      "target": 34962
    }
  ],
  "buffers": [
    {
      "byteLength": 1382520,
      "uri": "scene.bin"
    }
  ],
  "images": [
    {
      "uri": "https://img.gs/nqkkbfhlsg/1024x1024,quality=low/https://midtimiddelalderen.no/models/bat/textures/Boat.002_normal.png"
    },
    {
      "uri": "https://img.gs/nqkkbfhlsg/1024x1024,quality=low/https://midtimiddelalderen.no/models/bat/textures/Boat.002_baseColor.jpeg"
    },
    {
      "uri": "https://img.gs/nqkkbfhlsg/1024x1024,quality=low/https://midtimiddelalderen.no/models/bat/textures/Boat.002_metallicRoughness.png"
    },
    {
      "uri": "https://img.gs/nqkkbfhlsg/1024x1024,quality=low/https://midtimiddelalderen.no/models/bat/textures/Sail.002_normal.png"
    },
    {
      "uri": "https://img.gs/nqkkbfhlsg/1024x1024,quality=low/https://midtimiddelalderen.no/models/bat/textures/Sail.002_baseColor.jpeg"
    },
    {
      "uri": "https://img.gs/nqkkbfhlsg/1024x1024,quality=low/https://midtimiddelalderen.no/models/bat/textures/Sail.002_metallicRoughness.png"
    }
  ],
  "materials": [
    {
      "doubleSided": true,
      "name": "Sail.002",
      "normalTexture": {
        "index": 3,
        "scale": 1,
        "texCoord": 0
      },
      "pbrMetallicRoughness": {
        "baseColorFactor": [
          1,
          1,
          1,
          1
        ],
        "baseColorTexture": {
          "index": 4,
          "texCoord": 0
        },
        "metallicFactor": 1,
        "metallicRoughnessTexture": {
          "index": 5,
          "texCoord": 0
        },
        "roughnessFactor": 1
      }
    },
    {
      "doubleSided": true,
      "name": "Boat.002",
      "normalTexture": {
        "index": 0,
        "scale": 1,
        "texCoord": 0
      },
      "pbrMetallicRoughness": {
        "baseColorFactor": [
          1,
          1,
          1,
          1
        ],
        "baseColorTexture": {
          "index": 1,
          "texCoord": 0
        },
        "metallicFactor": 1,
        "metallicRoughnessTexture": {
          "index": 2,
          "texCoord": 0
        },
        "roughnessFactor": 1
      }
    }
  ],
  "meshes": [
    {
      "name": "Boat.001_Sail.002_0",
      "primitives": [
        {
          "attributes": {
            "NORMAL": 1,
            "POSITION": 0,
            "TANGENT": 2,
            "TEXCOORD_0": 3
          },
          "indices": 4,
          "material": 0,
          "mode": 4
        }
      ]
    },
    {
      "name": "Boat.001_Boat.002_0",
      "primitives": [
        {
          "attributes": {
            "NORMAL": 6,
            "POSITION": 5,
            "TANGENT": 7,
            "TEXCOORD_0": 8
          },
          "indices": 9,
          "material": 1,
          "mode": 4
        }
      ]
    }
  ],
  "nodes": [
    {
      "children": [
        1
      ],
      "name": "RootNode (gltf orientation matrix)",
      "rotation": [
        -0.70710678118654746,
        -0,
        -0,
        0.70710678118654757
      ]
    },
    {
      "children": [
        2
      ],
      "name": "RootNode (model correction matrix)"
    },
    {
      "children": [
        3
      ],
      "matrix": [
        1,
        0,
        0,
        0,
        0,
        0,
        1,
        0,
        0,
        -1,
        0,
        0,
        0,
        0,
        0,
        1
      ],
      "name": "800dd109abd644c7b2be0c0501d2dadd.fbx"
    },
    {
      "children": [
        4
      ],
      "name": "RootNode"
    },
    {
      "children": [
        5,
        6
      ],
      "matrix": [
        100,
        0,
        0,
        0,
        0,
        -1.6292067939183141e-05,
        -99.999999999998678,
        0,
        0,
        99.999999999998678,
        -1.6292067939183141e-05,
        0,
        0,
        0,
        0,
        1
      ],
      "name": "Boat.001"
    },
    {
      "mesh": 0,
      "name": "Boat.001_Sail.002_0"
    },
    {
      "mesh": 1,
      "name": "Boat.001_Boat.002_0"
    }
  ],
  "samplers": [
    {
      "magFilter": 9729,
      "minFilter": 9987,
      "wrapS": 10497,
      "wrapT": 10497
    }
  ],
  "scene": 0,
  "scenes": [
    {
      "name": "OSG_Scene",
      "nodes": [
        0
      ]
    }
  ],
  "textures": [
    {
      "sampler": 0,
      "source": 0
    },
    {
      "sampler": 0,
      "source": 1
    },
    {
      "sampler": 0,
      "source": 2
    },
    {
      "sampler": 0,
      "source": 3
    },
    {
      "sampler": 0,
      "source": 4
    },
    {
      "sampler": 0,
      "source": 5
    }
  ]
}

