<svg enable-background="new 0 0 23 23" viewBox="0 0 23 23" xmlns="http://www.w3.org/2000/svg"><path d="m22.798 18.485c.03.03.06.067.09.112s.052.09.067.135c.045.135.056.27.034.404s-.086.255-.191.359l-3.302 3.302c-.105.105-.225.168-.359.191s-.27.011-.404-.034c-.045-.015-.09-.037-.135-.067s-.082-.06-.112-.09l-6.986-6.985-6.985 6.985c-.03.03-.067.06-.112.09s-.09.052-.135.067c-.135.046-.27.057-.405.035s-.255-.086-.359-.191l-3.302-3.302c-.105-.105-.168-.225-.191-.359s-.011-.27.034-.405c.015-.045.037-.09.067-.135s.06-.082.09-.112l6.986-6.985-6.986-6.985c-.03-.03-.06-.067-.09-.112s-.052-.091-.067-.135c-.045-.135-.056-.27-.034-.405s.086-.255.191-.359l3.302-3.302c.105-.105.225-.168.359-.191s.27-.011.405.034c.045.015.09.037.135.067s.082.06.112.09l6.985 6.986 6.985-6.985c.03-.03.067-.06.112-.09s.09-.052.135-.067c.135-.045.27-.056.404-.034s.255.086.359.191l3.302 3.302c.105.105.168.225.191.359s.012.269-.033.404c-.015.045-.037.09-.067.135s-.06.082-.09.112l-6.986 6.985z" fill="#fff"/></svg>